<svg xmlns="http://www.w3.org/2000/svg" xmlns:xlink="http://www.w3.org/1999/xlink" width="450" height="450" viewBox="0 0 450 450"><defs><mask id="a" x="223.5" y="7" width="218" height="436" maskUnits="userSpaceOnUse"><path d="M223.5,7c120.4,0,218,97.6,218,218s-97.6,218-218,218Z" fill="#fff" fill-rule="evenodd"/></mask><mask id="b" x="223" y="7" width="218" height="436" maskUnits="userSpaceOnUse"><path d="M223,7c120.4,0,218,97.6,218,218S343.4,443,223,443Z" fill="#fff" fill-rule="evenodd"/></mask><mask id="d" x="224" y="7" width="218" height="436" maskUnits="userSpaceOnUse"><path d="M224,7c120.4,0,218,97.6,218,218S344.4,443,224,443Z" fill="#fff" fill-rule="evenodd"/></mask></defs><path d="M225,0C349.26,0,450,100.74,450,225S349.26,450,225,450Z" opacity="0.08"/><path d="M225,7c120.4,0,218,97.6,218,218S345.4,443,225,443Z" fill="#2a2d80" fill-rule="evenodd"/><g mask="url(#a)"><path d="M225,18c115.15,0,208.5,93.35,208.5,208.5S340.15,435,225,435Z" fill="#952525" fill-rule="evenodd"/></g><g mask="url(#b)"><path d="M225,47a178,178,0,0,1,0,356Z" fill="#e0592f" fill-rule="evenodd"/></g><g mask="url(#b)"><path d="M225,118a107,107,0,0,1,0,214Z" fill="#f89035" fill-rule="evenodd"/></g><g mask="url(#d)"><path d="M225,175a51,51,0,0,1,0,102Z" fill="#fff1aa" fill-rule="evenodd"/></g></svg>