<svg xmlns="http://www.w3.org/2000/svg" width="566.6" height="566.61" viewBox="0 0 566.6 566.61"><path d="M565.41,560.24h0v0a8.23,8.23,0,0,1-5.13,5.12h0a30.79,30.79,0,0,1-13.06.9C495.27,560.45,366.65,466.13,233.56,333,87.33,186.82-12.08,46,1.19,6.38c0,0,0,0,0-.06A8.23,8.23,0,0,1,6.31,1.2h.05c25.72-8.61,94.09,30.27,178.91,98.62q-6.77,3.61-13.22,7.72C119.62,68.22,77.55,45.39,56.46,46.34h0a10.52,10.52,0,0,0-7,3.12,10.69,10.69,0,0,0-3.1,7,35.06,35.06,0,0,0,.25,5.68C51.84,105.86,130.74,213.37,242,324.62,357.16,439.78,468.33,520.3,508.82,520.3h.11a11.49,11.49,0,0,0,11.36-11.48,42.35,42.35,0,0,0-.75-7.48h0c-4.23-22.89-26-60.85-60.46-106.77q4.1-6.46,7.71-13.23c53.92,66.9,89.5,123.57,97.9,157.15h0C566.94,547.48,567.23,554.81,565.41,560.24Z" fill="#b87d43" fill-rule="evenodd"/><path d="M507.59,502.43s0,0,0,0a6.57,6.57,0,0,1-5.13,5.13h0a21.08,21.08,0,0,1-3.85.39c-19,.39-55.05-18.61-100.11-51.45q-2.55-1.86-5.16-3.79c-23.07-17.1-48.35-37.66-74.82-61q-17.3-15.24-35.18-32-19.41-18.19-39.2-38C189.33,267,142.81,213.24,110,168.3,79.25,126.29,60.49,92,58.13,72a28,28,0,0,1,.15-8.51v0a6.55,6.55,0,0,1,5.12-5.12h0a20.2,20.2,0,0,1,4-.39c19.16-.3,55.47,18.92,100.82,52.06-1.67,1.11-3.31,2.24-4.94,3.39C128,88.94,99.9,75.18,84.39,75.69h-.08a8.93,8.93,0,0,0-8.63,8.52c0,.85,0,1.74,0,2.66.88,15.92,14.46,42.92,37.63,76.49,30.43,44.09,77.41,99.49,133.91,156q18.15,18.15,36,34.91c13.5,12.65,26.8,24.65,39.76,35.92,26.88,23.33,52.3,43.44,74.95,59.42q2.65,1.88,5.25,3.66c36.94,25.5,65.93,39.38,80.95,37.51h.06a7.59,7.59,0,0,0,6.5-6.55,28,28,0,0,0-.07-6.58h0c-1.88-16.13-15.27-42.25-37.45-74.37q1.69-2.38,3.3-4.81c29.06,39.86,47.27,72.67,50.82,92.87A31.08,31.08,0,0,1,507.59,502.43Z" fill="#b87d43" fill-rule="evenodd"/></svg>