<svg xmlns="http://www.w3.org/2000/svg" xmlns:xlink="http://www.w3.org/1999/xlink" width="450" height="450" viewBox="0 0 450 450"><defs><mask id="a" x="-8.86" y="-13.1" width="450" height="450" maskUnits="userSpaceOnUse"><circle cx="216.14" cy="211.9" r="225" fill="#fff"/></mask></defs><path d="M308.31,248.9a12,12,0,1,1,0,24h-73a12,12,0,1,1,0-24Z" fill="#356cee"/><path d="M61.91,248.9a12,12,0,1,1,0,24H19.05a12,12,0,0,1,0-24Z" fill="#356cee"/><path d="M429.9,248.9a12,12,0,1,1,0,24H354.5a12,12,0,0,1,0-24Z" fill="#356cee"/><path d="M213,152.9a12,12,0,0,1,0,24H148.31a12,12,0,0,0,0,24H288.4a12,12,0,0,1,0,24H51.31a12,12,0,0,1,0-24h49a12,12,0,1,0,0-24H81.78a12,12,0,0,1,0-24Z" fill="#356cee"/><path d="M359.9,188.9a12,12,0,0,0-12-12h-84a12,12,0,1,1,0-24h156a12,12,0,0,1,0,24h-24a12,12,0,0,0,0,24h31.6a12,12,0,0,1,0,24H338.9a12,12,0,0,1,0-24h9A12,12,0,0,0,359.9,188.9Z" fill="#356cee"/><path d="M42,152.9a12,12,0,1,1,0,24h-23a12,12,0,0,1,0-24Z" fill="#356cee"/><path d="M308.31,104.9a12,12,0,0,1,0,24h-73a12,12,0,0,1,0-24Z" fill="#356cee" opacity="0.4" style="isolation:isolate"/><path d="M100.46,104.9a12,12,0,1,1,0,24h-73a12,12,0,0,1,0-24Z" fill="#356cee" opacity="0.4" style="isolation:isolate"/><path d="M423.73,104.9a12,12,0,0,1,0,24H360.61a12,12,0,0,1,0-24Z" fill="#356cee" opacity="0.4" style="isolation:isolate"/><path d="M226.31,8.9a12,12,0,1,1,0,24h-78a12,12,0,0,0,0,24h160a12,12,0,0,1,0,24h-257a12,12,0,1,1,0-24h49a12,12,0,0,0,0-24h-30a12,12,0,0,1,0-24Z" fill="#356cee" opacity="0.4" style="isolation:isolate"/><path d="M373.61,44.9a12,12,0,0,0-12-12h-84a12,12,0,0,1,0-24h156a12,12,0,1,1,0,24h-24a12,12,0,0,0,0,24H427.5a12,12,0,0,1,0,24H352.61a12,12,0,1,1,0-24h9A12,12,0,0,0,373.61,44.9Z" fill="#356cee" opacity="0.4" style="isolation:isolate"/><path d="M31.84,8.9a12,12,0,1,1,0,24H13.05a12,12,0,0,1,0-24Z" fill="#356cee" opacity="0.4" style="isolation:isolate"/><path d="M288.4,416.9a12,12,0,0,1,0,24h-73a12,12,0,1,1,0-24Z" fill="#356cee" opacity="0.4" style="isolation:isolate"/><path d="M100.46,416.9a12,12,0,1,1,0,24h-73a12,12,0,1,1,0-24Z" fill="#356cee" opacity="0.4" style="isolation:isolate"/><path d="M428.08,416.9a12,12,0,1,1,0,24h-77a12,12,0,0,1,0-24Z" fill="#356cee" opacity="0.4" style="isolation:isolate"/><path d="M226.31,320.9a12,12,0,1,1,0,24h-78a12,12,0,0,0,0,24h160a12,12,0,1,1,0,24h-257a12,12,0,0,1,0-24h49a12,12,0,0,0,0-24h-30a12,12,0,0,1,0-24Z" fill="#356cee" opacity="0.4" style="isolation:isolate"/><path d="M367.5,356.9a12,12,0,0,0-12-12h-84a12,12,0,0,1,0-24h156a12,12,0,0,1,0,24h-24a12,12,0,0,0,0,24h11.21a12,12,0,0,1,0,24H346.5a12,12,0,0,1,0-24h9A12,12,0,0,0,367.5,356.9Z" fill="#356cee" opacity="0.4" style="isolation:isolate"/><path d="M27.31,320.9a12,12,0,0,1,0,24H15.46a12,12,0,1,1,0-24Z" fill="#356cee" opacity="0.4" style="isolation:isolate"/><g mask="url(#a)"><path d="M139.31,260.9a12,12,0,0,0-12-12h-19a12,12,0,0,1,0-24h79a12,12,0,0,1,0,24h-3a12,12,0,0,0,0,24h3a12,12,0,0,1,0,24h-61a12,12,0,0,1,0-24h1A12,12,0,0,0,139.31,260.9Z" fill="#2255ca"/></g></svg>