<svg xmlns="http://www.w3.org/2000/svg" width="566.6" height="566.61" viewBox="0 0 566.6 566.61"><path d="M6.35,1.19,44.49,39.33l2.84-2.57,9.12,9.58c21.09-1,63.16,21.87,115.6,61.19q6.45-4.09,13.22-7.72C100.44,31.45,32.06-7.43,6.35,1.19ZM466.78,381.33q-3.61,6.76-7.71,13.23c34.44,45.92,56.23,83.88,60.46,106.77,14.28,11.74,30.79,25.32,45.15,37.16C556.29,504.92,520.71,448.24,466.78,381.33Z" fill="#b87d43" fill-rule="evenodd"/><path d="M67.46,57.91c19.16-.3,55.47,18.92,100.82,52.06-1.67,1.11-3.31,2.24-4.94,3.39C128,88.94,99.9,75.18,84.39,75.69Z" fill="#b87d43" fill-rule="evenodd"/><path d="M507.35,491.33l-16.66-13.68h0c-1.88-16.14-15.27-42.25-37.45-74.38q1.69-2.38,3.3-4.81C485.59,438.32,503.8,471.13,507.35,491.33Z" fill="#b87d43" fill-rule="evenodd"/><path d="M565.41,560.24h0v0a8.23,8.23,0,0,1-5.13,5.12h0a30.79,30.79,0,0,1-13.06.9C495.27,560.45,366.65,466.13,233.56,333,87.33,186.82-12.08,46,1.19,6.38c0,0,0,0,0-.06A8.23,8.23,0,0,1,6.31,1.2h.05L44.5,39.33l2.84-2.57,9.12,9.58a10.55,10.55,0,0,0-7,3.12,10.69,10.69,0,0,0-3.1,7,35.06,35.06,0,0,0,.25,5.68C51.84,105.86,130.74,213.37,242,324.62,357.16,439.78,468.33,520.3,508.82,520.3h.11a11.48,11.48,0,0,0,11.36-11.48,42.46,42.46,0,0,0-.75-7.49c14.28,11.74,30.79,25.32,45.15,37.16C566.94,547.48,567.23,554.81,565.41,560.24Z" fill="#b87d43" fill-rule="evenodd"/><path d="M507.59,502.43s0,0,0,0a6.57,6.57,0,0,1-5.13,5.13h0a21.08,21.08,0,0,1-3.85.39c-19,.39-55.05-18.6-100.11-51.45q-2.55-1.86-5.16-3.79c-23.07-17.09-48.35-37.66-74.82-61q-17.3-15.24-35.18-32-19.41-18.19-39.2-38C189.33,267,142.81,213.24,110,168.3,79.25,126.29,60.49,92,58.13,72a28,28,0,0,1,.15-8.51v0a6.55,6.55,0,0,1,5.12-5.12h0a21,21,0,0,1,4-.39L84.39,75.69h-.08a8.93,8.93,0,0,0-8.63,8.52c0,.85,0,1.74,0,2.66.88,15.92,14.46,42.92,37.63,76.49,30.43,44.09,77.41,99.49,133.91,156q18.15,18.15,36,34.91c13.5,12.66,26.8,24.66,39.76,35.92,26.88,23.33,52.3,43.44,74.95,59.42q2.65,1.88,5.25,3.66c36.94,25.5,65.93,39.38,80.95,37.51h.06a7.59,7.59,0,0,0,6.5-6.55,28,28,0,0,0-.07-6.57l16.66,13.68A31.08,31.08,0,0,1,507.59,502.43Z" fill="#b87d43" fill-rule="evenodd"/></svg>