<svg xmlns="http://www.w3.org/2000/svg" width="582" height="582" viewBox="0 0 582 582"><path d="M59.83,279a12,12,0,0,1,0,24H26.7a12,12,0,1,1,0-24Zm194.23,0a12,12,0,0,1,0,24h-78a12,12,0,0,0,0,24h160a12,12,0,0,1,0,24h-257a12,12,0,0,1,0-24h49a12,12,0,0,0,0-24h-30a12,12,0,0,1,0-24ZM51.85,375a12,12,0,1,1,0,24H21.35a12,12,0,0,1,0-24Zm264.71,0a12,12,0,0,1,0,24h-73a12,12,0,1,1,0-24Zm264,12a12,12,0,0,0-12-12h-166a12,12,0,1,0,0,24h166A12,12,0,0,0,580.56,387Zm-190-84a12,12,0,0,1,0,24h-9a12,12,0,1,0,0,24h172a12,12,0,0,0,0-24h-115a12,12,0,0,1,0-24h24a12,12,0,0,0,0-24h-156a12,12,0,1,0,0,24Zm172-12a12,12,0,0,0-12-12h-43a12,12,0,0,0,0,24h43A12,12,0,0,0,562.56,291Z" fill="#f0d29f" fill-rule="evenodd"/><path d="M135.56,387a12,12,0,0,0-12-12h-29a12,12,0,0,1,0-24h101a12,12,0,0,1,0,24h-3a12,12,0,0,0,0,24h3a12,12,0,0,1,0,24h-76a12,12,0,1,1,0-24h4A12,12,0,0,0,135.56,387Z" fill="#d86534"/><path d="M377.07,39a12,12,0,0,0,0,24h78a12,12,0,0,1,0,24h-160a12,12,0,0,0,0,24h257a12,12,0,0,0,0-24h-49a12,12,0,1,1,0-24h30a12,12,0,0,0,0-24Zm88.49,96a12,12,0,1,0,0,24h73a12,12,0,0,0,0-24ZM43.06,39a12,12,0,0,0,0,24h73a12,12,0,0,0,0-24Zm285,96a12,12,0,0,0,0,24h73a12,12,0,0,0,0-24ZM79.56,147a12,12,0,0,1,12-12h166a12,12,0,0,1,0,24h-166A12,12,0,0,1,79.56,147Zm167-84a12,12,0,0,0,0,24h9a12,12,0,0,1,0,24H34.78a12,12,0,0,1,0-24h163.8a12,12,0,0,0,0-24h-24a12,12,0,0,1,0-24h156a12,12,0,0,1,0,24Z" fill="#dc8e61" fill-rule="evenodd"/><path d="M380.56,423a12,12,0,1,0,0,24h78a12,12,0,0,1,0,24h-160a12,12,0,1,0,0,24h257a12,12,0,0,0,0-24h-49a12,12,0,1,1,0-24h30a12,12,0,0,0,0-24Zm55.5,96a12,12,0,1,0,0,24h73a12,12,0,0,0,0-24Zm-137.5,0a12,12,0,1,0,0,24h73a12,12,0,0,0,0-24Zm-264,12a12,12,0,0,1,12-12h166a12,12,0,0,1,0,24h-166A12,12,0,0,1,34.56,531Zm190-84a12,12,0,1,0,0,24h9a12,12,0,0,1,0,24h-211a12,12,0,0,1,0-24h154a12,12,0,0,0,0-24h-24a12,12,0,1,1,0-24h156a12,12,0,0,1,0,24Zm-214-12a12,12,0,0,1,12-12h72a12,12,0,0,1,0,24h-72A12,12,0,0,1,10.56,435Z" fill="#d89d6d" fill-rule="evenodd"/><path d="M153.56,207a12,12,0,0,1,0,24h-10a12,12,0,0,0,0,24h89a12,12,0,0,0,0-24h-10a12,12,0,0,1,0-24h65a12,12,0,0,0,0-24h-199a12,12,0,0,0,0,24Zm-46,36a12,12,0,0,0-12-12h-62a12,12,0,0,0,0,24h62A12,12,0,0,0,107.56,243Zm353,0a12,12,0,0,0-12-12h-168a12,12,0,1,0,0,24h168A12,12,0,0,0,460.56,243Zm64-12a12,12,0,0,1,0,24h-28a12,12,0,1,1,0-24Zm-35-36a12,12,0,0,0-12-12h-142a12,12,0,1,0,0,24h142A12,12,0,0,0,489.56,195ZM555,183a12,12,0,0,1,12,12.19A12.29,12.29,0,0,1,554.61,207H526a12.28,12.28,0,0,1-12.43-11.81,12,12,0,0,1,12-12.19ZM61.24,195a12,12,0,0,0-12-12h-28a12,12,0,0,0,0,24h28A12,12,0,0,0,61.24,195Z" fill="#d89d6d" fill-rule="evenodd"/></svg>