<svg xmlns="http://www.w3.org/2000/svg" width="336" height="336" viewBox="0 0 336 336"><path d="M93.56,36a12,12,0,0,0-12-12h-35a12,12,0,0,1,0-24h156a12,12,0,0,1,0,24h-56a12,12,0,0,0,0,24h13a12,12,0,0,1,0,24h-127a12,12,0,0,1,0-24h49A12,12,0,0,0,93.56,36Z" fill="#ff9b6b"/><path d="M228.46,48a12,12,0,1,1,0,24h-5a12,12,0,0,1,0-24Z" fill="#ff9b6b"/><path d="M301.46,300a12,12,0,0,1-12,12h-56a12,12,0,0,0,0,24h-65a12,12,0,1,0,0-24h-35a12,12,0,0,1,0-24h156A12,12,0,0,1,301.46,300Z" fill="#ff9b6b"/><path d="M211.29,264a12,12,0,0,1,0,24h-62a12,12,0,1,1,0-24Z" fill="#d04237"/><path d="M88.56,264a12,12,0,0,1,0,24h-20a12,12,0,0,1,0-24Z" fill="#d04237"/><path d="M314.48,168a12,12,0,0,1,0,24h-151a12,12,0,0,0,0,24h19a12,12,0,1,1,0,24h-120a12,12,0,0,1,0-24h32a12,12,0,1,0,0-24h-64a12,12,0,1,1,0-24Z" fill="#d04237"/><path d="M262.48,216a12,12,0,0,1,0,24h-20a12,12,0,0,1,0-24Z" fill="#d04237"/><path d="M130.56,72a12,12,0,0,1,0,24h-40a12,12,0,0,1,0-24Z" fill="#d04237"/><path d="M299.05,72a12,12,0,0,1,0,24h-40a12,12,0,0,1,0-24Z" fill="#d04237"/></svg>