<svg xmlns="http://www.w3.org/2000/svg" width="566.6" height="566.6" viewBox="0 0 566.6 566.6"><path d="M491.3,283.3c0,2.5,0,5-.13,7.48,0,.55,0,1.11-.07,1.65,0,.89-.08,1.78-.13,2.66,0,.39,0,.79-.07,1.18-.09,1.46-.19,2.91-.32,4.36-.06.75-.12,1.5-.19,2.25l0,.3c-.07.74-.15,1.49-.22,2.22-.26,2.44-.56,4.85-.9,7.26-.15,1.07-.31,2.13-.48,3.19s-.29,1.83-.45,2.74a.28.28,0,0,1,0,.09c0,.19-.06.39-.1.58a.89.89,0,0,1,0,.14c-.06.4-.14.8-.21,1.2s-.14.8-.22,1.2-.2,1.09-.31,1.63c-.25,1.3-.52,2.59-.8,3.88-.08.38-.16.76-.25,1.14-.21.94-.42,1.89-.64,2.82l-.21.88c-.19.76-.37,1.53-.57,2.29-.28,1.11-.57,2.22-.86,3.32s-.56,2-.85,3-.63,2.17-1,3.25c-.24.82-.5,1.64-.77,2.46-.11.37-.23.74-.35,1.1-.16.51-.32,1-.5,1.51q-.1.36-.24.72c-.29.87-.59,1.74-.89,2.61l-.13.36c-.35,1-.71,2-1.08,3s-.63,1.69-1,2.53c-.16.44-.33.87-.5,1.3q-.94,2.37-1.92,4.7c-.32.78-.66,1.55-1,2.32-.13.32-.27.63-.42.94-.37.84-.74,1.68-1.13,2.51a4.08,4.08,0,0,1-.19.42c-.4.87-.81,1.73-1.22,2.59q-1.32,2.79-2.75,5.53c-.48.92-1,1.84-1.45,2.75-.3.57-.6,1.13-.91,1.69-.92,1.69-1.86,3.35-2.83,5-.61,1.05-1.23,2.1-1.86,3.14s-1.4,2.28-2.11,3.4l-1.48,2.3c-.35.53-.7,1.07-1.06,1.6-1.08,1.62-2.17,3.22-3.29,4.8q-1.29,1.81-2.61,3.6l-1.17,1.57c-.55.73-1.11,1.46-1.67,2.18-.8,1-1.6,2-2.42,3.07q-2.08,2.58-4.24,5.09c-.4.48-.82.95-1.23,1.42l-1,1.12c-.75.84-1.5,1.67-2.26,2.5q-.17.19-.36.39c-.95,1-1.92,2.07-2.89,3.08s-2,2.08-3,3.1l-1,1-2.16,2.1-1.58,1.5-1.6,1.48a2.19,2.19,0,0,1-.23.21q-1.26,1.17-2.55,2.31-5.61,5-11.56,9.54c-.87.67-1.75,1.33-2.63,2-1.27.95-2.56,1.88-3.85,2.8q-2.6-1.78-5.25-3.66c-22.65-16-48.05-36.09-74.94-59.43h0c-13-11.25-26.26-23.25-39.76-35.91V75.3C398.17,75.3,491.3,168.42,491.3,283.3Z" opacity="0.08"/><path d="M381.32,466.8c-.91.49-1.83,1-2.75,1.44s-1.85.95-2.78,1.41c-1.86.93-3.73,1.82-5.62,2.69l-2.71,1.22c-.29.14-.58.27-.88.39-.77.34-1.54.68-2.32,1q-2.33,1-4.7,1.92l-1.3.5c-.84.33-1.68.65-2.53,1s-2,.73-3,1.08l-.36.13-2.61.89-.72.24c-.5.18-1,.34-1.51.5l-1.1.35c-.82.27-1.64.52-2.46.77-1.08.33-2.16.66-3.25,1l-3,.85-3.32.86c-.76.2-1.53.38-2.29.57l-.88.21-2.82.64-1.14.25c-1.29.28-2.58.55-3.88.8l-1.63.31-1.2.22-1.2.21-.14,0-.58.1h-.09c-.91.16-1.82.31-2.74.45s-2.12.33-3.19.48c-2.41.34-4.82.64-7.26.9l-2.22.22-.3,0-2.25.19c-1.45.13-2.9.23-4.36.32l-1.18.07-2.66.13-1.65.07c-2.48.09-5,.13-7.48.13V381.19q8.11,7.6,16.15,15c26.49,24.28,52.3,46.6,76.79,66.53Z" opacity="0.08"/><path d="M398.45,456.54l-1.6,1.06-.58.37-1.72,1.1-5.12-3.87c-23.38-17.78-48.7-38.72-75.06-62.18Q299,379.37,283.3,364.61v-4.85q17.83,16.73,35.18,32c26.47,23.33,51.75,43.89,74.81,61Q395.9,454.67,398.45,456.54Z" opacity="0.08"/><path d="M376.24,462.69A201.05,201.05,0,0,1,283.3,485.3V381.19q8.11,7.6,16.15,15C325.94,420.44,351.75,442.76,376.24,462.69Z" fill="#9c4925" fill-rule="evenodd"/><path d="M393.29,452.74c-1.28.84-2.56,1.66-3.86,2.46-23.38-17.78-48.7-38.72-75.06-62.18Q299,379.37,283.3,364.61v-4.85q17.83,16.73,35.18,32C345,415.09,370.23,435.65,393.29,452.74Z" fill="#9c4925" fill-rule="evenodd"/><path d="M485.3,283.3a201.06,201.06,0,0,1-22.61,92.95q-3.51,6.75-7.49,13.18c-.8,1.3-1.62,2.58-2.45,3.86-1,1.59-2.09,3.16-3.16,4.72A203,203,0,0,1,398,449.59c-22.65-16-48.05-36.09-74.94-59.43h0c-13-11.25-26.26-23.25-39.76-35.91V81.3C394.86,81.3,485.3,171.74,485.3,283.3Z" fill="#9c4925" fill-rule="evenodd"/><path d="M299.45,396.16a114.66,114.66,0,0,1-16.15,1.14V381.19Q291.41,388.79,299.45,396.16Z" fill="#e09b7f"/><path d="M318.48,391.76c-1.36.45-2.73.86-4.11,1.26Q299,379.37,283.3,364.61v-4.85Q301.14,376.49,318.48,391.76Z" fill="#e09b7f"/><path d="M397.3,283.3a114.52,114.52,0,0,1-1.14,16.14A113.31,113.31,0,0,1,393,314.37c-.4,1.38-.81,2.75-1.26,4.1q-.74,2.32-1.59,4.59a114.28,114.28,0,0,1-67.1,67.1h0c-13-11.25-26.26-23.25-39.76-35.91V169.3A114,114,0,0,1,397.3,283.3Z" fill="#e09b7f"/><path d="M283.3,249.3a34.5,34.5,0,0,1,0,69Z" fill="#fec"/><path d="M565.41,560.23h0v0a8.23,8.23,0,0,1-5.13,5.12h0a30.79,30.79,0,0,1-13.06.9c-31.9-3.61-92.77-40.62-165.85-99.51l-5.08-4.11c-24.49-19.93-50.3-42.25-76.79-66.53q-8-7.37-16.15-15Q258.68,358.12,233.56,333C182.27,281.74,136.73,231.11,99.8,185.28,31.45,100.47-7.43,32.09,1.19,6.37l0-.06a8.23,8.23,0,0,1,5.1-5.12h.05C32.07-7.44,100.45,31.44,185.28,99.8q-6.76,3.61-13.22,7.72C119.62,68.2,77.55,45.37,56.46,46.33a10.55,10.55,0,0,0-7,3.12,10.69,10.69,0,0,0-3.1,7,35.06,35.06,0,0,0,.25,5.68C49.29,84.64,71.47,124,107.52,172.05c34,45.38,80.44,98.53,134.47,152.56q20.81,20.81,41.31,40Q299,379.36,314.37,393c26.36,23.46,51.68,44.4,75.06,62.18l5.12,3.87c51.36,38.53,92.78,61.22,114.27,61.22h.11a11.48,11.48,0,0,0,11.36-11.48,41.62,41.62,0,0,0-.75-7.49c-4.23-22.89-26-60.85-60.46-106.77.71-1.12,1.41-2.26,2.11-3.4s1.25-2.09,1.86-3.14c1-1.65,1.91-3.31,2.83-5,.31-.56.61-1.12.91-1.69,53.93,66.91,89.51,123.59,97.9,157.16C566.94,547.47,567.23,554.8,565.41,560.23Z" fill="#b87d43" fill-rule="evenodd"/><path d="M507.6,502.42v0a6.57,6.57,0,0,1-5.13,5.13h0a21.08,21.08,0,0,1-3.85.39c-19,.39-55.05-18.6-100.12-51.45q-2.55-1.86-5.16-3.8c-23.06-17.09-48.34-37.65-74.81-61q-17.3-15.24-35.18-32-19.41-18.19-39.2-38C189.34,267,142.82,213.23,110,168.29,79.26,126.28,60.51,92,58.14,72a28,28,0,0,1,.15-8.51v0a6.55,6.55,0,0,1,5.12-5.12h0a21,21,0,0,1,4-.39c19.16-.3,55.47,18.92,100.81,52.07-1.67,1.1-3.31,2.23-4.94,3.38C128,88.93,99.91,75.17,84.4,75.68h-.08a8.93,8.93,0,0,0-8.63,8.52c0,.85,0,1.74,0,2.66.89,15.92,14.46,42.92,37.63,76.49,30.43,44.09,77.41,99.49,133.91,156q18.15,18.15,36,34.91c13.5,12.66,26.8,24.66,39.76,35.91h0C350,413.5,375.36,433.61,398,449.59q2.65,1.88,5.25,3.66c36.94,25.5,65.93,39.38,80.95,37.51h.06a7.59,7.59,0,0,0,6.49-6.55,27.39,27.39,0,0,0-.06-6.57h0c-1.87-16.14-15.26-42.26-37.44-74.39,1.12-1.58,2.21-3.18,3.29-4.8,29.06,39.86,47.27,72.67,50.82,92.87A31.08,31.08,0,0,1,507.6,502.42Z" fill="#b87d43" fill-rule="evenodd"/></svg>