<svg xmlns="http://www.w3.org/2000/svg" width="566.6" height="566.6" viewBox="0 0 566.6 566.6"><path d="M283.3,75.3c114.87,0,208,93.13,208,208s-93.13,208-208,208Z" opacity="0.08"/><path d="M565.41,560.24h0v0a8.23,8.23,0,0,1-5.13,5.12h0a30.79,30.79,0,0,1-13.06.9C495.27,560.45,366.65,466.13,233.56,333,87.33,186.82-12.08,46,1.19,6.38c0,0,0,0,0-.06A8.23,8.23,0,0,1,6.31,1.2h.05L44.5,39.33l2.84-2.57,9.12,9.58a10.55,10.55,0,0,0-7,3.12,10.69,10.69,0,0,0-3.1,7,35.06,35.06,0,0,0,.25,5.68C51.84,105.86,130.74,213.37,242,324.62,357.16,439.78,468.33,520.3,508.82,520.3h.11a11.5,11.5,0,0,0,11.36-11.49,42.44,42.44,0,0,0-.75-7.48c14.28,11.74,30.79,25.32,45.15,37.16C566.94,547.48,567.23,554.81,565.41,560.24Z" fill="#b87d43" fill-rule="evenodd"/><path d="M507.6,502.43s0,0,0,0a6.57,6.57,0,0,1-5.13,5.13h0a21.08,21.08,0,0,1-3.85.39c-38,.78-144.32-76.05-254.47-186.2C138.15,215.86,63,113.48,58.14,72a28,28,0,0,1,.15-8.51v0a6.55,6.55,0,0,1,5.12-5.12h0a21,21,0,0,1,4-.39L84.4,75.69h-.08a8.93,8.93,0,0,0-8.63,8.52c0,.85,0,1.74,0,2.66,2,36.84,72,133,171.54,232.48,103.84,103.84,204,175.53,237,171.42h.05a7.59,7.59,0,0,0,6.5-6.55,27.83,27.83,0,0,0-.06-6.56l16.66,13.68A31.08,31.08,0,0,1,507.6,502.43Z" fill="#b87d43" fill-rule="evenodd"/></svg>