<svg xmlns="http://www.w3.org/2000/svg" width="582" height="582" viewBox="0 0 582 582"><path d="M291,0C451.71,0,582,130.29,582,291S451.71,582,291,582Z" opacity="0.08"/><path d="M577,291c0,158-128,286-286,286V5C449,5,577,133.05,577,291Z" fill="#a15c3e" fill-rule="evenodd"/><path d="M561,291c0,148.84-120.66,269.5-269.5,269.5H291V21.5h.5C440.34,21.5,561,142.16,561,291Z" fill="#f0d29f"/><path d="M505,291c0,117.36-95.14,212.5-212.5,212.5H291v-425h1.5C409.86,78.5,505,173.64,505,291Z" fill="#e2be81"/><path d="M480,291c0,103.55-83.95,187.5-187.5,187.5H291v-375h1.5C396.05,103.5,480,187.45,480,291Z" fill="#d27140"/><path d="M333,291a42,42,0,0,1-42,42V249A42,42,0,0,1,333,291Z" fill="#565658"/></svg>