<svg id="Layer_1" data-name="Layer 1" xmlns="http://www.w3.org/2000/svg" viewBox="0 0 722 528"><defs><style>.cls-1{fill:#4fcdf9;}.cls-2{fill:#fff;}</style></defs><path class="cls-1" d="M175,384a12,12,0,0,0,0-24H156a12,12,0,0,1,0-24h-2a12,12,0,0,0,0-24H144a12,12,0,0,1,0-24,12,12,0,0,0,0-24,12,12,0,0,1,0-24h49a12,12,0,0,1,0,24h2a12,12,0,0,0,0,24h51a12,12,0,0,1,0,24h-6a12,12,0,0,0,0,24h0a12,12,0,0,1,0,24H213a12,12,0,0,0,0,24h-4a12,12,0,0,1,0,24H180a12,12,0,0,1,0-24Z"/><path class="cls-1" d="M90,216a12,12,0,0,1,0,24H55a12,12,0,0,1,0-24Z"/><circle class="cls-1" cx="139" cy="204" r="12"/><path class="cls-1" d="M217,48a12,12,0,0,1,0,24h-1a12,12,0,0,0,0,24h7a12,12,0,0,1,0,24H154a12,12,0,0,0,0,24h5a12,12,0,0,1,0,24H40a12,12,0,0,1,0-24H50a12,12,0,0,0,0-24h4a12,12,0,0,1,0-24h6a12,12,0,0,0,0-24H12a12,12,0,0,1,0-24Z"/><path class="cls-2" d="M138,396a12,12,0,0,0-12-12H58a12,12,0,0,1,0-24H159a12,12,0,0,0,0-24H136a12,12,0,0,1,0-24H254a12,12,0,0,1,0,24H207a12,12,0,0,0,0,24h14a12,12,0,0,1,0,24H195a12,12,0,0,0,0,24h3a12,12,0,0,1,0,24H122a12,12,0,0,1,0-24h4A12,12,0,0,0,138,396Z"/><path class="cls-2" d="M289,360a12,12,0,0,1,0,24H269a12,12,0,0,1,0-24Z"/><path class="cls-1" d="M431,360a12,12,0,0,0,0-24,12,12,0,0,1,0-24h-3a12,12,0,0,0,0-24H383a12,12,0,0,1,0-24,12,12,0,0,0,0-24H349a12,12,0,0,1,0-24h26a12,12,0,0,0,0-24,12,12,0,0,1,0-24h56a12,12,0,0,1,0,24h0a12,12,0,0,0,0,24h91a12,12,0,0,1,0,24H502a12,12,0,0,0,0,24h10a12,12,0,0,1,0,24H497a12,12,0,0,0,0,24h-2a12,12,0,0,1,0,24H475a12,12,0,0,0,0,24h-4a12,12,0,0,1,0,24H435a12,12,0,0,1,0-24Z"/><circle class="cls-1" cx="521" cy="348" r="12"/><path class="cls-1" d="M503,168a12,12,0,0,1,0,24H489a12,12,0,0,1,0-24Z"/><path class="cls-1" d="M701,96a12,12,0,0,1,0,24h-7a12,12,0,0,0,0,24h16a12,12,0,0,1,0,24H536a12,12,0,0,1,0-24h-5a12,12,0,0,0,0-24H490a12,12,0,0,1,0-24Z"/><path class="cls-1" d="M400,120a12,12,0,0,1,0,24H376a12,12,0,0,1,0-24Z"/><path class="cls-1" d="M438,120a12,12,0,0,1,0,24h-3a12,12,0,0,1,0-24Z"/><path class="cls-1" d="M451,72a12,12,0,0,1,0,24H427a12,12,0,0,1,0-24Z"/><path class="cls-2" d="M454,144a12,12,0,0,1,0,24H392a12,12,0,0,1,0-24Z"/><path class="cls-2" d="M348,84a12,12,0,0,0-12-12H216a12,12,0,0,1,0-24h49a12,12,0,0,0,0-24H249a12,12,0,0,1,0-24h62a12,12,0,0,1,0,24h2a12,12,0,0,0,0,24H473a12,12,0,0,1,0,24H405a12,12,0,0,0,0,24h3a12,12,0,0,1,0,24H332a12,12,0,0,1,0-24h4A12,12,0,0,0,348,84Z"/><path class="cls-2" d="M476,96a12,12,0,0,1,0,24H456a12,12,0,0,1,0-24Z"/><path class="cls-2" d="M284,96a12,12,0,0,1,0,24H264a12,12,0,0,1,0-24Z"/><path class="cls-2" d="M515,0a12,12,0,0,1,0,24H359a12,12,0,0,1,0-24Z"/><path class="cls-2" d="M524,288a12,12,0,0,1,0,24H462a12,12,0,0,1,0-24Z"/><path class="cls-2" d="M460,240a12,12,0,0,1,0,24H440a12,12,0,0,1,0-24Z"/><path class="cls-2" d="M614,192a12,12,0,0,1,0,24H458a12,12,0,0,1,0-24Z"/><path class="cls-2" d="M390,492a12,12,0,0,0-12-12H310a12,12,0,0,1,0-24H411a12,12,0,0,0,0-24H388a12,12,0,0,1,0-24H506a12,12,0,0,1,0,24H459a12,12,0,0,0,0,24h14a12,12,0,0,1,0,24H447a12,12,0,0,0,0,24h3a12,12,0,0,1,0,24H374a12,12,0,0,1,0-24h4A12,12,0,0,0,390,492Z"/><path class="cls-2" d="M541,456a12,12,0,0,1,0,24H521a12,12,0,0,1,0-24Z"/></svg>