<svg xmlns="http://www.w3.org/2000/svg" xmlns:xlink="http://www.w3.org/1999/xlink" width="336" height="336" viewBox="0 0 336 336"><defs><mask id="a" x="167" y="7" width="161" height="322" maskUnits="userSpaceOnUse"><path d="M167,7a161,161,0,0,1,0,322Z" fill="#fff" fill-rule="evenodd"/></mask><mask id="d" x="167" y="6" width="161" height="322" maskUnits="userSpaceOnUse"><path d="M167,6a161,161,0,0,1,0,322Z" fill="#fff" fill-rule="evenodd"/></mask></defs><path d="M168,0a168,168,0,0,1,0,336Z" opacity="0.08"/><path d="M168,7a161,161,0,0,1,0,322Z" fill="#97271e" fill-rule="evenodd"/><g mask="url(#a)"><path d="M168,14a154,154,0,0,1,0,308Z" fill="#dc5d1c" fill-rule="evenodd"/></g><g mask="url(#a)"><path d="M168,89a79,79,0,0,1,0,158Z" fill="#f8a053" fill-rule="evenodd"/></g><g mask="url(#a)"><path d="M168,114a54,54,0,0,1,0,108Z" fill="#ffca79" fill-rule="evenodd"/></g><g mask="url(#d)"><path d="M168,128a40,40,0,0,1,0,80Z" fill="#fff5c6" fill-rule="evenodd"/></g></svg>