<svg xmlns="http://www.w3.org/2000/svg" width="458" height="458" viewBox="0 0 458 458"><path d="M333.16,431.81a12,12,0,0,1,0-24h9.43a12,12,0,0,0,0-24H251.16a12,12,0,0,1,0-24H439.59a12,12,0,0,1,0,24h-49a12,12,0,0,0,0,24h30a12,12,0,0,1,0,24Zm-61.65-96a12,12,0,0,1,0-24h73a12,12,0,0,1,0,24Zm-264-12a12,12,0,0,0,12,12h166a12,12,0,0,0,0-24h-166A12,12,0,0,0,7.51,323.81Zm192.35,84a12,12,0,0,1,0-24h9a12,12,0,1,0,0-24H25.07a12,12,0,1,0,0,24H151.86a12,12,0,0,1,0,24h-24a12,12,0,1,0,0,24h156a12,12,0,0,0,0-24Zm-192.79,12a12,12,0,0,0,12,12H80.35a12,12,0,0,0,0-24H19.07A12,12,0,0,0,7.07,419.81Z" fill="#49cbc2" fill-rule="evenodd"/><path d="M276,167.81a12,12,0,0,0,0,24h78a12,12,0,0,1,0,24H194a12,12,0,0,0,0,24H429.15a12,12,0,0,0,0-24H402a12,12,0,0,1,0-24h8.14a12,12,0,0,0,0-24Zm58.95,96a12,12,0,0,0,0,24h73a12,12,0,0,0,0-24Zm-124.1,0a12,12,0,0,0,0,24h73a12,12,0,0,0,0-24ZM29,275.81a12,12,0,0,1,12-12H168a12,12,0,0,1,0,24H41A12,12,0,0,1,29,275.81Zm117-84a12,12,0,0,0,0,24h9a12,12,0,0,1,0,24h-130a12,12,0,1,1,0-24h73a12,12,0,0,0,0-24h-24a12,12,0,0,1,0-24h156a12,12,0,0,1,0,24Zm-135.45-12a12,12,0,0,1,12-12H35.46a12,12,0,1,1,0,24H22.6A12,12,0,0,1,10.6,179.81Z" fill="#50decd" fill-rule="evenodd"/><path d="M318.52,143.81a12,12,0,0,1,0-24h23a12,12,0,0,0,0-24H245.82a12,12,0,0,1,0-24H438.49a12,12,0,0,1,0,24h-49a12,12,0,0,0,0,24h30a12,12,0,0,1,0,24Zm-9.64-96a12,12,0,1,1,0-24h73a12,12,0,0,1,0,24Zm-218.72-12a12,12,0,0,0,12,12h166a12,12,0,0,0,0-24h-166A12,12,0,0,0,90.16,35.81Zm103.36,84a12,12,0,0,1,0-24h9a12,12,0,1,0,0-24H18.27a12,12,0,0,0,0,24H145.52a12,12,0,0,1,0,24h-24a12,12,0,1,0,0,24h156a12,12,0,0,0,0-24Zm-182.92,12a12,12,0,0,0,12,12H83.16a12,12,0,0,0,0-24H22.6A12,12,0,0,0,10.6,131.81Z" fill="#77fff5" fill-rule="evenodd"/></svg>