<svg xmlns="http://www.w3.org/2000/svg" width="450" height="450" viewBox="0 0 450 450"><path d="M146.74,351a12,12,0,0,0,0-24h-19a12,12,0,0,1,0-24h-2a12,12,0,1,0,0-24h-10a12,12,0,0,1,0-24,12,12,0,1,0,0-24,12,12,0,0,1,0-24h49a12,12,0,0,1,0,24h2a12,12,0,0,0,0,24h51a12,12,0,0,1,0,24h-6a12,12,0,0,0,0,24h0a12,12,0,0,1,0,24h-27a12,12,0,0,0,0,24h-4a12,12,0,0,1,0,24h-29a12,12,0,0,1,0-24Z" fill="#4fcdf9"/><path d="M73.66,183a12,12,0,0,1,0,24h-35a12,12,0,1,1,0-24Z" fill="#4fcdf9"/><circle cx="73.74" cy="100.28" r="12" fill="#4fcdf9"/><path d="M266.49,39H146.89a12,12,0,0,1,0-24H88.29a12.27,12.27,0,0,0-12.4,11.76A12,12,0,0,0,87.89,39h47.6a12.27,12.27,0,0,1,12.4,11.76,12,12,0,0,1-12,12.24h-5.64a12.24,12.24,0,0,0-12.36,11.65,12,12,0,0,0,6.67,11.1,11.73,11.73,0,0,0,3.3,1.08,9.79,9.79,0,0,1,4.45,1.83c3.26,2.55,5.58,6.44,5.58,10.34a12,12,0,0,1-12,12h-9.6a12.27,12.27,0,0,0-12.4,11.76,12,12,0,0,0,12,12.24h119a12,12,0,0,0,12-12.24A12.27,12.27,0,0,0,234.49,111h-4.6a12,12,0,0,1,0-24h33a12,12,0,0,1,0-24h4a12,12,0,0,0,12-12.21A12.27,12.27,0,0,0,266.49,39Zm-51.6,48h-20a12,12,0,0,1,0-24h20a12,12,0,0,1,0,24Z" fill="#4fcdf9"/><path d="M226.89,75a12,12,0,0,1-12,12h-20a12,12,0,0,1,0-24h20A12,12,0,0,1,226.89,75Z" fill="#4fcdf9"/><path d="M310.89,75a12,12,0,0,1-12,12h-36a12,12,0,0,1,0-24h4a12,12,0,0,0,0-24h-120a12,12,0,0,1,0-24h146a12,12,0,0,1,0,24h-1a12,12,0,0,0,0,24h7A12,12,0,0,1,310.89,75Z" fill="#4fcdf9"/><path d="M331.24,327a12,12,0,0,0,0-24,12,12,0,0,1,0-24h-3a12,12,0,0,0,0-24h-45a12,12,0,0,1,0-24,12,12,0,0,0,0-24h-34a12,12,0,0,1,0-24h26a12,12,0,0,0,0-24,12,12,0,0,1,0-24h56a12,12,0,0,1,0,24h0a12,12,0,0,0,0,24h91a12,12,0,0,1,0,24h-20a12,12,0,0,0,0,24h10a12,12,0,0,1,0,24h-15a12,12,0,0,0,0,24h-2a12,12,0,0,1,0,24h-20a12,12,0,0,0,0,24h-4a12,12,0,0,1,0,24h-36a12,12,0,0,1,0-24Z" fill="#4fcdf9"/><circle cx="429.68" cy="315" r="12" fill="#4fcdf9"/><path d="M398.74,135a12,12,0,0,1,0,24h-14a12,12,0,0,1,0-24Z" fill="#4fcdf9"/><path d="M371.74,87a12,12,0,0,1,0,24h-24a12,12,0,0,1,0-24Z" fill="#4fcdf9"/><path d="M409.74,87a12,12,0,0,1,0,24h-3a12,12,0,0,1,0-24Z" fill="#4fcdf9"/><path d="M422.74,39a12,12,0,0,1,0,24h-24a12,12,0,0,1,0-24Z" fill="#4fcdf9"/><path d="M384.89,111a12,12,0,0,1,0,24h-62a12,12,0,0,1,0-24Z" fill="#fff"/><path d="M415.89,27a12,12,0,0,1-12,12h-68a12,12,0,0,0,0,24h3a12,12,0,0,1,0,24h-76a12,12,0,0,1,0-24h4a12,12,0,0,0,0-24h-120a12,12,0,0,1,0-24h49a12,12,0,0,0,12-12,11.86,11.86,0,0,0-.38-3h25.26a11.86,11.86,0,0,0-.38,3,12,12,0,0,0,11.5,12h160A12,12,0,0,1,415.89,27Z" fill="#fff"/><path d="M406.89,63a12,12,0,0,1,0,24h-20a12,12,0,0,1,0-24Z" fill="#fff"/><path d="M226.89,75a12,12,0,0,1-12,12h-20a12,12,0,0,1,0-24h20A12,12,0,0,1,226.89,75Z" fill="#fff"/><path d="M109.74,363a12,12,0,0,0-12-12h-68a12,12,0,0,1,0-24h101a12,12,0,0,0,0-24h-23a12,12,0,0,1,0-24h118a12,12,0,0,1,0,24h-47a12,12,0,0,0,0,24h14a12,12,0,0,1,0,24h-26a12,12,0,0,0,0,24h3a12,12,0,0,1,0,24h-76a12,12,0,0,1,0-24h4A12,12,0,0,0,109.74,363Z" fill="#fff"/><path d="M260.74,327a12,12,0,0,1,0,24h-20a12,12,0,0,1,0-24Z" fill="#fff"/><path d="M405,387a12,12,0,0,1-12,12H346a12,12,0,0,0,0,24h14a12,12,0,0,1,0,24H334a11.94,11.94,0,0,0-7.43,3H272.91a12,12,0,0,0-7.94-3H197a12,12,0,0,1,0-24H298a12,12,0,0,0,0-24H275a12,12,0,0,1,0-24H393A12,12,0,0,1,405,387Z" fill="#fff"/></svg>