<svg xmlns="http://www.w3.org/2000/svg" xmlns:xlink="http://www.w3.org/1999/xlink" width="290" height="290" viewBox="0 0 290 290"><defs><mask id="a" x="144" y="5" width="139" height="278" maskUnits="userSpaceOnUse"><path d="M144,5a139,139,0,0,1,0,278Z" fill="#fff" fill-rule="evenodd"/></mask><mask id="b" x="144" y="6" width="139" height="278" maskUnits="userSpaceOnUse"><path d="M144,6a139,139,0,0,1,0,278Z" fill="#fff" fill-rule="evenodd"/></mask><mask id="c" x="144.5" y="5.5" width="139" height="278" maskUnits="userSpaceOnUse"><path d="M144.5,5.5a139,139,0,0,1,0,278Z" fill="#fff" fill-rule="evenodd"/></mask></defs><path d="M145,0a145,145,0,0,1,0,290Z" opacity="0.08"/><path d="M145,6a139,139,0,0,1,0,278Z" fill="#7a939c" fill-rule="evenodd"/><g mask="url(#a)"><path d="M145,14a131,131,0,0,1,0,262Z" fill="#9ab2bb" fill-rule="evenodd"/></g><g mask="url(#b)"><path d="M145,50a95,95,0,0,1,0,190Z" fill="#e8903f" fill-rule="evenodd"/></g><g mask="url(#c)"><path d="M145,103.5a41.5,41.5,0,0,1,0,83Z" fill="#ffea87" fill-rule="evenodd"/></g></svg>