<svg xmlns="http://www.w3.org/2000/svg" width="290" height="290" viewBox="0 0 290 290"><path d="M175.5,253a12,12,0,0,1,0,24h-20a12,12,0,0,1,0-24Z" fill="#b1d5e2"/><path d="M261.5,205a12,12,0,0,1,0,24h-62a12,12,0,0,1,0-24Z" fill="#b1d5e2"/><circle cx="151.5" cy="217" r="12" fill="#b1d5e2"/><path d="M106.5,145a12,12,0,0,0-12-12h-71a12,12,0,0,1,0-24h49a12,12,0,0,0,0-24h-5a12,12,0,0,1,0-24h73a12,12,0,0,1,0,24h-20a12,12,0,0,0,0,24h45a12,12,0,0,1,0,24h-2a12,12,0,0,0,0,24h52a12,12,0,0,1,0,24H91.5a12,12,0,0,1,0-24h3A12,12,0,0,0,106.5,145Z" fill="#b1d5e2"/><circle cx="266.5" cy="169" r="12" fill="#b1d5e2"/><path d="M43.5,157a12,12,0,0,1,0,24h-20a12,12,0,0,1,0-24Z" fill="#b1d5e2"/><path d="M242.5,61a12,12,0,0,1,0,24h-20a12,12,0,0,1,0-24Z" fill="#b1d5e2"/><path d="M266.5,13a12,12,0,0,1,0,24h-58a12,12,0,0,1,0-24Z" fill="#b1d5e2"/></svg>