<svg xmlns="http://www.w3.org/2000/svg" xmlns:xlink="http://www.w3.org/1999/xlink" width="450" height="450" viewBox="0 0 450 450"><defs><mask id="a" x="-7.2" y="-13" width="450" height="450" maskUnits="userSpaceOnUse"><circle cx="217.8" cy="212" r="225" fill="#fff"/></mask></defs><path d="M310,249a12,12,0,0,1,0,24H237a12,12,0,0,1,0-24Z" fill="#356cee"/><path d="M63.58,249a12,12,0,0,1,0,24H20.72a12,12,0,1,1,0-24Z" fill="#356cee"/><path d="M431.57,249a12,12,0,0,1,0,24h-75.4a12,12,0,0,1,0-24Z" fill="#356cee"/><path d="M214.67,153a12,12,0,0,1,0,24H150a12,12,0,0,0,0,24H290.07a12,12,0,0,1,0,24H53a12,12,0,0,1,0-24h49a12,12,0,1,0,0-24H83.45a12,12,0,1,1,0-24Z" fill="#356cee"/><path d="M361.57,189a12,12,0,0,0-12-12h-84a12,12,0,0,1,0-24h156a12,12,0,0,1,0,24h-24a12,12,0,0,0,0,24h31.6a12,12,0,1,1,0,24h-88.6a12,12,0,1,1,0-24h9A12,12,0,0,0,361.57,189Z" fill="#356cee"/><path d="M43.68,153a12,12,0,1,1,0,24h-23a12,12,0,0,1,0-24Z" fill="#356cee"/><path d="M310,105a12,12,0,0,1,0,24H237a12,12,0,0,1,0-24Z" fill="#356cee" opacity="0.4" style="isolation:isolate"/><path d="M102.13,105a12,12,0,0,1,0,24h-73a12,12,0,0,1,0-24Z" fill="#356cee" opacity="0.4" style="isolation:isolate"/><path d="M425.4,105a12,12,0,0,1,0,24H362.28a12,12,0,0,1,0-24Z" fill="#356cee" opacity="0.4" style="isolation:isolate"/><path d="M228,9a12,12,0,0,1,0,24H150a12,12,0,0,0,0,24H310a12,12,0,0,1,0,24H53a12,12,0,1,1,0-24h49a12,12,0,1,0,0-24H72A12,12,0,0,1,72,9Z" fill="#356cee" opacity="0.4" style="isolation:isolate"/><path d="M375.28,45a12,12,0,0,0-12-12h-84a12,12,0,0,1,0-24h156a12,12,0,0,1,0,24h-24a12,12,0,0,0,0,24h17.89a12,12,0,0,1,0,24H354.28a12,12,0,0,1,0-24h9A12,12,0,0,0,375.28,45Z" fill="#356cee" opacity="0.4" style="isolation:isolate"/><path d="M33.51,9a12,12,0,0,1,0,24H14.72a12,12,0,0,1,0-24Z" fill="#356cee" opacity="0.4" style="isolation:isolate"/><path d="M290.07,417a12,12,0,0,1,0,24h-73a12,12,0,1,1,0-24Z" fill="#356cee" opacity="0.4" style="isolation:isolate"/><path d="M102.13,417a12,12,0,0,1,0,24h-73a12,12,0,0,1,0-24Z" fill="#356cee" opacity="0.4" style="isolation:isolate"/><path d="M429.75,417a12,12,0,0,1,0,24h-77a12,12,0,0,1,0-24Z" fill="#356cee" opacity="0.4" style="isolation:isolate"/><path d="M228,321a12,12,0,1,1,0,24H150a12,12,0,0,0,0,24H310a12,12,0,0,1,0,24H53a12,12,0,0,1,0-24h49a12,12,0,1,0,0-24H72a12,12,0,0,1,0-24Z" fill="#356cee" opacity="0.4" style="isolation:isolate"/><path d="M369.17,357a12,12,0,0,0-12-12h-84a12,12,0,0,1,0-24h156a12,12,0,1,1,0,24h-24a12,12,0,0,0,0,24h11.21a12,12,0,0,1,0,24H348.17a12,12,0,0,1,0-24h9A12,12,0,0,0,369.17,357Z" fill="#356cee" opacity="0.4" style="isolation:isolate"/><path d="M29,321a12,12,0,0,1,0,24H17.13a12,12,0,0,1,0-24Z" fill="#356cee" opacity="0.4" style="isolation:isolate"/><g mask="url(#a)"><path d="M141,261a12,12,0,0,0-12-12H110a12,12,0,0,1,0-24h79a12,12,0,1,1,0,24h-3a12,12,0,0,0,0,24h3a12,12,0,1,1,0,24H128a12,12,0,0,1,0-24h1A12,12,0,0,0,141,261Z" fill="#2255ca"/></g></svg>