<svg xmlns="http://www.w3.org/2000/svg" xmlns:xlink="http://www.w3.org/1999/xlink" width="450" height="450" viewBox="0 0 450 450"><defs><mask id="a" x="225" y="7" width="218" height="436" maskUnits="userSpaceOnUse"><path d="M225,7c120.4,0,218,97.6,218,218S345.4,443,225,443Z" fill="#fff" fill-rule="evenodd"/></mask></defs><path d="M225,0C349.26,0,450,100.74,450,225S349.26,450,225,450Z" opacity="0.08"/><path d="M225,7c120.4,0,218,97.6,218,218S345.4,443,225,443Z" fill="#94d5ff" fill-rule="evenodd"/><g mask="url(#a)"><path d="M225,14c116.53,0,211,94.47,211,211S341.53,436,225,436Z" fill="#2959c9" fill-rule="evenodd"/></g><g mask="url(#a)"><path d="M225,78a147,147,0,0,1,0,294Z" fill="#6593ff" fill-rule="evenodd"/></g><g mask="url(#a)"><path d="M225,143a82,82,0,0,1,0,164Z" fill="#4a7ae9" fill-rule="evenodd"/></g><g mask="url(#a)"><path d="M225,193a32,32,0,0,1,0,64Z" fill="#042570" fill-rule="evenodd"/></g></svg>