<svg xmlns="http://www.w3.org/2000/svg" width="416" height="416" viewBox="0 0 416 416"><path d="M263,203.35a12,12,0,0,0,0,24h78a12,12,0,0,1,0,24H192.36a12,12,0,1,0,0,24H397.55a12,12,0,0,0,0-24H389a12,12,0,0,1,0-24h7.2a12,12,0,0,0,0-24Zm58.45,96a12,12,0,1,0,0,24h73a12,12,0,0,0,0-24Zm-114.62,0a12,12,0,0,0,0,24h73a12,12,0,1,0,0-24Zm-194.46,12a12,12,0,0,1,12-12H163.5a12,12,0,0,1,0,24H24.36A12,12,0,0,1,12.36,311.35Zm130.46-84a12,12,0,0,0,0,24h9a12,12,0,0,1,0,24L24.36,277.3a12,12,0,0,1,0-24l70.46-2h0a12,12,0,0,0,0-24h-24a12,12,0,1,1,0-24h156a12,12,0,0,1,0,24Zm-136.46-12a12,12,0,0,1,12-12H28.65a12,12,0,1,1,0,24H18.36a12,12,0,0,1-12-12Z" fill="#ecb55a" fill-rule="evenodd"/></svg>