<svg xmlns="http://www.w3.org/2000/svg" xmlns:xlink="http://www.w3.org/1999/xlink" width="400" height="400" viewBox="0 0 400 400"><defs><mask id="a" x="199" y="7" width="193" height="386" maskUnits="userSpaceOnUse"><path d="M199,7C305.59,7,392,93.41,392,200S305.59,393,199,393Z" fill="#fff" fill-rule="evenodd"/></mask></defs><path d="M200,0C310.46,0,400,89.54,400,200S310.46,400,200,400Z" opacity="0.08"/><path d="M393,200c0,106.59-86.41,193-193,193V7C306.59,7,393,93.41,393,200Z" fill="#c08240" fill-rule="evenodd"/><g mask="url(#a)"><path d="M200,16c102.17,0,185,82.83,185,185S302.17,386,200,386Z" fill="#a34d28" fill-rule="evenodd"/></g><g mask="url(#a)"><path d="M200,117a83,83,0,0,1,0,166Z" fill="#fad14c" fill-rule="evenodd"/></g></svg>