<svg xmlns="http://www.w3.org/2000/svg" width="566.6" height="566.6" viewBox="0 0 566.6 566.6"><path d="M333,233.57C186.79,87.32,46-12.09,6.36,1.19L44.5,39.33l2.84-2.57,9.12,9.58C95.8,44.54,208.16,125.55,324.61,242,433.3,350.69,511.12,455.82,519.54,501.33c14.28,11.74,30.79,25.32,45.15,37.16C550.56,481.93,459.22,359.76,333,233.57Z" fill="#b87d43" fill-rule="evenodd"/><path d="M507.36,491.33,490.7,477.65h0C486.24,439.37,417,344.94,319.34,247.27,217.53,145.46,119.24,74.54,84.4,75.69L67.47,57.91c38.14-.59,144.31,76.18,254.32,186.19C425.59,347.9,499.8,448.28,507.36,491.33Z" fill="#b87d43" fill-rule="evenodd"/><circle cx="283.3" cy="283.3" r="208" fill="#fccb6b"/></svg>