<svg xmlns="http://www.w3.org/2000/svg" width="566.6" height="566.6" viewBox="0 0 566.6 566.6"><path d="M380.22,276.75a12,12,0,0,0,0,24h78a12,12,0,0,1,0,24h-160a12,12,0,0,0,0,24h229a12,12,0,0,0,0-24h-21a12,12,0,0,1,0-24h30a12,12,0,0,0,0-24Zm68.15,96a12,12,0,0,0,0,24h73a12,12,0,0,0,0-24Zm-134.57,0a12,12,0,1,0,0,24h73a12,12,0,0,0,0-24Zm-264,12a12,12,0,0,1,12-12h166a12,12,0,0,1,0,24H61.8A12,12,0,0,1,49.8,384.75Zm190-84a12,12,0,1,0,0,24h9a12,12,0,0,1,0,24H22.7a12,12,0,1,1,0-24H191.8a12,12,0,0,0,0-24h-24a12,12,0,0,1,0-24h156a12,12,0,0,1,0,24Zm-227.4-12a12,12,0,0,1,12-12h85.4a12,12,0,1,1,0,24H24.4a12,12,0,0,1-12-12Z" fill="#ecb55a" fill-rule="evenodd"/></svg>